<?xml version="1.0" standalone="no"?><!DOCTYPE svg PUBLIC "-//W3C//DTD SVG 1.1//EN" "http://www.w3.org/Graphics/SVG/1.1/DTD/svg11.dtd"><svg t="1615452435874" class="icon" viewBox="0 0 1024 1024" version="1.1" xmlns="http://www.w3.org/2000/svg" p-id="14598" xmlns:xlink="http://www.w3.org/1999/xlink" width="200" height="200"><defs><style type="text/css"></style></defs><path d="M395 481H197a62.07 62.07 0 0 1-62-62V221a62.07 62.07 0 0 1 62-62h198a62.07 62.07 0 0 1 62 62v198a62.07 62.07 0 0 1-62 62zM197 183a38 38 0 0 0-38 38v198a38 38 0 0 0 38 38h198a38 38 0 0 0 38-38V221a38 38 0 0 0-38-38zM825 481H627a62.07 62.07 0 0 1-62-62V221a62.07 62.07 0 0 1 62-62h198a62.07 62.07 0 0 1 62 62v198a62.07 62.07 0 0 1-62 62zM627 183a38 38 0 0 0-38 38v198a38 38 0 0 0 38 38h198a38 38 0 0 0 38-38V221a38 38 0 0 0-38-38zM395 910H197a62.07 62.07 0 0 1-62-62V650a62.07 62.07 0 0 1 62-62h198a62.07 62.07 0 0 1 62 62v198a62.07 62.07 0 0 1-62 62zM197 612a38 38 0 0 0-38 38v198a38 38 0 0 0 38 38h198a38 38 0 0 0 38-38V650a38 38 0 0 0-38-38zM825 910H627a62.07 62.07 0 0 1-62-62V650a62.07 62.07 0 0 1 62-62h198a62.07 62.07 0 0 1 62 62v198a62.07 62.07 0 0 1-62 62zM627 612a38 38 0 0 0-38 38v198a38 38 0 0 0 38 38h198a38 38 0 0 0 38-38V650a38 38 0 0 0-38-38z" p-id="14599" fill="#d81e06"></path></svg>